<svg width="48" height="48" viewBox="0 0 48 48" fill="none" xmlns="http://www.w3.org/2000/svg">
<path d="M38 22H10V38H38V22Z" stroke="#AD343E" stroke-width="2.5" stroke-linecap="round" stroke-linejoin="round"/>
<path d="M31 28H17" stroke="#AD343E" stroke-width="2.5" stroke-linecap="round" stroke-linejoin="round"/>
<path d="M29 12C30.1046 12 31 11.1046 31 10C31 8.89543 30.1046 8 29 8C27.8954 8 27 8.89543 27 10C27 11.1046 27.8954 12 29 12Z" fill="#474747"/>
<path d="M37 12C38.1046 12 39 11.1046 39 10C39 8.89543 38.1046 8 37 8C35.8954 8 35 8.89543 35 10C35 11.1046 35.8954 12 37 12Z" fill="#474747"/>
<path d="M40 4H8C5.79086 4 4 5.79086 4 8V40C4 42.2091 5.79086 44 8 44H40C42.2091 44 44 42.2091 44 40V8C44 5.79086 42.2091 4 40 4Z" stroke="#474747" stroke-width="2.5" stroke-linecap="round" stroke-linejoin="round"/>
<path d="M10 10H16" stroke="#474747" stroke-width="2.5" stroke-linecap="round" stroke-linejoin="round"/>
<path d="M4 16H44" stroke="#474747" stroke-width="2.5" stroke-linecap="round" stroke-linejoin="round"/>
</svg>
